<?xml version="1.0" encoding="UTF-8" standalone="no"?>
<!-- Created with Inkscape (http://www.inkscape.org/) -->

<svg
   xmlns:dc="http://purl.org/dc/elements/1.1/"
   xmlns:cc="http://creativecommons.org/ns#"
   xmlns:rdf="http://www.w3.org/1999/02/22-rdf-syntax-ns#"
   xmlns:svg="http://www.w3.org/2000/svg"
   xmlns="http://www.w3.org/2000/svg"
   xmlns:xlink="http://www.w3.org/1999/xlink"
   xmlns:sodipodi="http://sodipodi.sourceforge.net/DTD/sodipodi-0.dtd"
   xmlns:inkscape="http://www.inkscape.org/namespaces/inkscape"
   width="744.09448819"
   height="1052.3622047"
   id="svg2"
   version="1.1"
   inkscape:version="0.48.4 r9939"
   sodipodi:docname="ikony.svg">
  <defs
     id="defs4" />
  <sodipodi:namedview
     id="base"
     pagecolor="#ffffff"
     bordercolor="#666666"
     borderopacity="1.0"
     inkscape:pageopacity="0.0"
     inkscape:pageshadow="2"
     inkscape:zoom="1.4"
     inkscape:cx="197.81757"
     inkscape:cy="1014.0831"
     inkscape:document-units="px"
     inkscape:current-layer="layer1"
     showgrid="false"
     inkscape:window-width="1528"
     inkscape:window-height="869"
     inkscape:window-x="1970"
     inkscape:window-y="50"
     inkscape:window-maximized="0" />
  <metadata
     id="metadata7">
    <rdf:RDF>
      <cc:Work
         rdf:about="">
        <dc:format>image/svg+xml</dc:format>
        <dc:type
           rdf:resource="http://purl.org/dc/dcmitype/StillImage" />
        <dc:title></dc:title>
      </cc:Work>
    </rdf:RDF>
  </metadata>
  <g
     inkscape:label="Layer 1"
     inkscape:groupmode="layer"
     id="layer1">
    <path
       style="fill:#1a1a1a;stroke:#000000;stroke-width:0.53862107px;stroke-linecap:butt;stroke-linejoin:miter;stroke-opacity:1"
       d="M 48.91293,7.9827836 9.4515503,27.713472 48.837881,47.444166 29.18224,27.713472 z"
       id="path2987"
       inkscape:connector-curvature="0"
       sodipodi:nodetypes="ccccc"
       inkscape:export-filename="prev.png"
       inkscape:export-xdpi="90"
       inkscape:export-ydpi="90" />
    <use
       x="0"
       y="0"
       xlink:href="#path2987"
       id="use2989"
       transform="matrix(-1,0,0,1,118.36448,0)"
       width="744.09448"
       height="1052.3622"
       inkscape:export-filename="next.png"
       inkscape:export-xdpi="90"
       inkscape:export-ydpi="90" />
    <g
       id="g3187"
       inkscape:export-filename="logo.png"
       inkscape:export-xdpi="49.709999"
       inkscape:export-ydpi="49.709999">
      <g
         transform="translate(-15.765048,-16.158086)"
         id="g3151">
        <path
           sodipodi:nodetypes="zccz"
           inkscape:connector-curvature="0"
           id="path2991"
           d="m 259.43875,55.394002 c -33.31938,0 -26.83967,22.42211 -26.83967,48.390388 l 53.6545,0 c 0.38835,-25.251281 6.50455,-48.390388 -26.81483,-48.390388 z"
           style="fill:#f9f9f9;fill-opacity:1;stroke:#4d4d4d;stroke-width:2.23376894;stroke-linecap:butt;stroke-miterlimit:4;stroke-opacity:1;stroke-dasharray:none" />
        <path
           d="m 210.71428,44.505039 c 0,10.256717 -8.31471,18.571429 -18.57143,18.571429 -10.25671,0 -18.57143,-8.314712 -18.57143,-18.571429 0,-10.256716 8.31472,-18.571428 18.57143,-18.571428 10.25672,0 18.57143,8.314712 18.57143,18.571428 z"
           sodipodi:ry="18.571428"
           sodipodi:rx="18.571428"
           sodipodi:cy="44.505039"
           sodipodi:cx="192.14285"
           id="path2993"
           style="fill:#f9f9f9;fill-opacity:1;stroke:#4d4d4d;stroke-width:2;stroke-linecap:butt;stroke-miterlimit:4;stroke-opacity:1;stroke-dasharray:none"
           sodipodi:type="arc"
           transform="translate(67.285714,-0.42857142)" />
        <path
           style="fill:#f9f9f9;fill-opacity:1;stroke:#4d4d4d;stroke-width:1px;stroke-linecap:butt;stroke-linejoin:miter;stroke-opacity:1"
           d="m 247.07511,57.043757 c -0.67773,5.162061 -0.74364,10.435841 -0.18316,15.608715 0.76227,1.973412 2.62259,-2.67799 3.97153,-3.488308 2.0849,-1.841745 0.10951,3.863785 0.29874,5.371037 0.27343,1.681211 -1.44168,7.147547 1.07007,3.586415 2.67804,-2.764008 4.45745,-6.442256 7.63776,-8.661502 1.2096,1.301051 -0.80591,7.236091 0.49356,6.811216 1.98117,-3.282617 3.80232,-6.650873 5.47161,-10.097609 1.75422,-2.083642 0.89211,3.887368 1.7633,5.325245 0.35893,1.200284 0.68016,4.400745 1.27802,1.273869 0.84995,-4.623688 1.93147,-9.203515 3.25015,-13.722076 0.39895,-1.137272 0.0177,-2.374926 0.45477,-3.522231"
           id="path2995"
           inkscape:connector-curvature="0" />
        <path
           sodipodi:nodetypes="ccc"
           inkscape:connector-curvature="0"
           id="path3054-1"
           d="m 249.92019,54.743091 c 1.63566,1.71936 6.5734,2.11157 11.19331,1.515142 2.30896,-0.50383 5.61233,-0.0928 6.88484,-2.103158"
           style="fill:none;stroke:#4d4d4d;stroke-width:1px;stroke-linecap:butt;stroke-linejoin:miter;stroke-opacity:1" />
        <path
           style="fill:#f9f9f9;fill-opacity:1;stroke:#4d4d4d;stroke-width:1px;stroke-linecap:butt;stroke-linejoin:miter;stroke-opacity:1"
           d="m 240.88793,58.306447 c 2.30182,-5.54771 5.95007,-8.502979 11.80802,-8.969731 4.71406,2.381965 9.09932,1.907401 13.88374,0.291871 4.90349,1.081168 11.11061,8.616865 13.815,12.596406 -4.36027,-3.26848 -6.85681,-4.633045 -10.15756,-5.402677 -6.01747,-2.363358 -12.94832,-1.567243 -19.33934,-1.435161 -3.83493,-0.351364 -10.4094,5.221668 -11.942,6.887954 z"
           id="path3010"
           inkscape:connector-curvature="0"
           sodipodi:nodetypes="cccccccc" />
        <path
           sodipodi:type="arc"
           style="fill:#f9f9f9;fill-opacity:1;stroke:#4d4d4d;stroke-width:2;stroke-linecap:butt;stroke-miterlimit:4;stroke-opacity:1;stroke-dasharray:none"
           id="path3018"
           sodipodi:cx="233.57143"
           sodipodi:cy="27.183611"
           sodipodi:rx="1.7857143"
           sodipodi:ry="1.9642857"
           d="m 235.35714,27.183611 c 0,1.084845 -0.79949,1.964286 -1.78571,1.964286 -0.98623,0 -1.78572,-0.879441 -1.78572,-1.964286 0,-1.084845 0.79949,-1.964286 1.78572,-1.964286 0.98622,0 1.78571,0.879441 1.78571,1.964286 z"
           transform="matrix(1.1011179,0,0,0.60980707,-4.3325277,23.231263)" />
        <path
           transform="matrix(1.1011179,0,0,0.60980707,9.6674723,23.231263)"
           d="m 235.35714,27.183611 c 0,1.084845 -0.79949,1.964286 -1.78571,1.964286 -0.98623,0 -1.78572,-0.879441 -1.78572,-1.964286 0,-1.084845 0.79949,-1.964286 1.78572,-1.964286 0.98622,0 1.78571,0.879441 1.78571,1.964286 z"
           sodipodi:ry="1.9642857"
           sodipodi:rx="1.7857143"
           sodipodi:cy="27.183611"
           sodipodi:cx="233.57143"
           id="path3020"
           style="fill:#f9f9f9;fill-opacity:1;stroke:#4d4d4d;stroke-width:2;stroke-linecap:butt;stroke-miterlimit:4;stroke-opacity:1;stroke-dasharray:none"
           sodipodi:type="arc" />
        <path
           style="fill:#f9f9f9;fill-opacity:1;stroke:#4d4d4d;stroke-width:1px;stroke-linecap:butt;stroke-linejoin:miter;stroke-opacity:1"
           d="m 275.75123,39.092995 c 0.002,-1.197896 0.2061,-2.382991 0.33907,-3.570185 0.14607,-1.130593 0.65181,-2.23451 1.56387,-2.94695 0.55538,-0.475012 1.19061,-0.848432 1.85113,-1.157065 0.71437,0.0039 1.55164,0.0072 2.06552,0.586076 0.0495,0.811488 -0.529,1.472938 -0.65007,2.252597 -0.41487,1.122822 -0.77637,2.302716 -0.66896,3.513967 -0.0986,2.081494 -1.1013,4.071277 -2.57166,5.52242 -0.59542,0.469009 -1.44243,0.920976 -1.43903,1.518728 -0.76874,-1.985798 -0.41884,-3.902944 -0.48987,-5.719588 z"
           id="path3109"
           inkscape:connector-curvature="0"
           sodipodi:nodetypes="cccccccccc" />
        <path
           sodipodi:nodetypes="cccccccccc"
           inkscape:connector-curvature="0"
           id="path3141"
           d="m 243.55424,39.092995 c -0.002,-1.197896 -0.2061,-2.382991 -0.33907,-3.570185 -0.14607,-1.130593 -0.65181,-2.23451 -1.56387,-2.94695 -0.55538,-0.475012 -1.19061,-0.848432 -1.85113,-1.157065 -0.71437,0.0039 -1.55164,0.0072 -2.06552,0.586076 -0.0495,0.811488 0.529,1.472938 0.65007,2.252597 0.41487,1.122822 0.77637,2.302716 0.66896,3.513967 0.0986,2.081494 1.1013,4.071277 2.57166,5.52242 0.59542,0.469009 1.44243,0.920976 1.43903,1.518728 0.76874,-1.985798 0.41884,-3.902944 0.48987,-5.719588 z"
           style="fill:#f9f9f9;fill-opacity:1;stroke:#4d4d4d;stroke-width:1px;stroke-linecap:butt;stroke-linejoin:miter;stroke-opacity:1" />
      </g>
      <g
         transform="translate(12.626907,-8.3158107)"
         id="g3143">
        <path
           sodipodi:nodetypes="zccz"
           inkscape:connector-curvature="0"
           id="path3046"
           d="m 161.43875,57.394002 c -33.31938,0 -26.83967,22.42211 -26.83967,48.390388 l 53.6545,0 c 0.38835,-25.251281 6.50455,-48.390388 -26.81483,-48.390388 z"
           style="fill:#f9f9f9;fill-opacity:1;stroke:#4d4d4d;stroke-width:2.23376894;stroke-linecap:butt;stroke-miterlimit:4;stroke-opacity:1;stroke-dasharray:none" />
        <path
           d="m 210.71428,44.505039 c 0,10.256717 -8.31471,18.571429 -18.57143,18.571429 -10.25671,0 -18.57143,-8.314712 -18.57143,-18.571429 0,-10.256716 8.31472,-18.571428 18.57143,-18.571428 10.25672,0 18.57143,8.314712 18.57143,18.571428 z"
           sodipodi:ry="18.571428"
           sodipodi:rx="18.571428"
           sodipodi:cy="44.505039"
           sodipodi:cx="192.14285"
           id="path3048"
           style="fill:#f9f9f9;fill-opacity:1;stroke:#4d4d4d;stroke-width:2;stroke-linecap:butt;stroke-miterlimit:4;stroke-opacity:1;stroke-dasharray:none"
           sodipodi:type="arc"
           transform="translate(-30.714286,1.5714286)" />
        <path
           sodipodi:type="arc"
           style="fill:#f9f9f9;fill-opacity:1;stroke:#4d4d4d;stroke-width:2;stroke-linecap:butt;stroke-miterlimit:4;stroke-opacity:1;stroke-dasharray:none"
           id="path3050"
           sodipodi:cx="233.57143"
           sodipodi:cy="27.183611"
           sodipodi:rx="1.7857143"
           sodipodi:ry="1.9642857"
           d="m 235.35714,27.183611 c 0,1.084845 -0.79949,1.964286 -1.78571,1.964286 -0.98623,0 -1.78572,-0.879441 -1.78572,-1.964286 0,-1.084845 0.79949,-1.964286 1.78572,-1.964286 0.98622,0 1.78571,0.879441 1.78571,1.964286 z"
           transform="matrix(1.1011179,0,0,0.60980707,-102.33253,27.231264)" />
        <path
           transform="matrix(1.1011179,0,0,0.60980707,-88.332526,27.231264)"
           d="m 235.35714,27.183611 c 0,1.084845 -0.79949,1.964286 -1.78571,1.964286 -0.98623,0 -1.78572,-0.879441 -1.78572,-1.964286 0,-1.084845 0.79949,-1.964286 1.78572,-1.964286 0.98622,0 1.78571,0.879441 1.78571,1.964286 z"
           sodipodi:ry="1.9642857"
           sodipodi:rx="1.7857143"
           sodipodi:cy="27.183611"
           sodipodi:cx="233.57143"
           id="path3052"
           style="fill:#f9f9f9;fill-opacity:1;stroke:#4d4d4d;stroke-width:2;stroke-linecap:butt;stroke-miterlimit:4;stroke-opacity:1;stroke-dasharray:none"
           sodipodi:type="arc" />
        <path
           sodipodi:nodetypes="ccc"
           inkscape:connector-curvature="0"
           id="path3054"
           d="m 153.49061,53.207917 c 1.63566,1.71936 6.5734,2.11157 11.19331,1.515142 2.30896,-0.50383 5.61233,-0.0928 6.88484,-2.103158"
           style="fill:none;stroke:#4d4d4d;stroke-width:1px;stroke-linecap:butt;stroke-linejoin:miter;stroke-opacity:1" />
        <path
           style="fill:#f9f9f9;fill-opacity:1;stroke:#4d4d4d;stroke-width:1px;stroke-linecap:butt;stroke-linejoin:miter;stroke-opacity:1"
           d="m 159.19184,35.325477 c -4.22749,0.04337 -8.66064,2.18252 -10.24342,6.325019 -3.26996,8.068804 -0.90925,17.292203 -4.42018,25.304072 -0.87469,2.12431 -2.4688,4.449055 -5.09066,3.095513 -3.94914,-0.883851 -5.32111,-5.330564 -5.32401,-8.905813 -0.13113,-7.660744 2.16002,-15.079134 3.51241,-22.549073 3.63916,-13.472771 19.21655,-22.590369 32.69621,-18.561034 7.24437,2.1134 12.80327,8.428961 14.53953,15.698174 2.4555,9.634303 0.51912,19.600493 0.79168,29.384452 -0.9382,2.241541 -1.79909,5.742901 -4.7005,5.846101 -2.62731,-1.069411 -3.26363,-4.309804 -3.96665,-6.761987 -0.80972,-4.03955 -1.19603,-8.502002 0.59706,-12.339481 1.25391,-5.25984 -0.85385,-11.188753 -5.48392,-14.113913 -4.24975,-2.859843 -9.736,-3.551085 -14.67499,-2.422028"
           id="path3056"
           inkscape:connector-curvature="0" />
      </g>
      <g
         transform="translate(-3.9285714,0)"
         id="g3161">
        <path
           style="fill:#f9f9f9;fill-opacity:1;stroke:#4d4d4d;stroke-width:2.23376894;stroke-linecap:butt;stroke-miterlimit:4;stroke-opacity:1;stroke-dasharray:none"
           d="m 211.43875,69.394002 c -33.31938,0 -26.83967,22.42211 -26.83967,48.390388 l 53.6545,0 c 0.38835,-25.251281 6.50455,-48.390388 -26.81483,-48.390388 z"
           id="path2986"
           inkscape:connector-curvature="0"
           sodipodi:nodetypes="zccz" />
        <path
           sodipodi:type="arc"
           style="fill:#f9f9f9;fill-opacity:1;stroke:#4d4d4d;stroke-width:2;stroke-linecap:butt;stroke-miterlimit:4;stroke-opacity:1;stroke-dasharray:none"
           id="path2984"
           sodipodi:cx="192.14285"
           sodipodi:cy="44.505039"
           sodipodi:rx="18.571428"
           sodipodi:ry="18.571428"
           d="m 210.71428,44.505039 c 0,10.256717 -8.31471,18.571429 -18.57143,18.571429 -10.25671,0 -18.57143,-8.314712 -18.57143,-18.571429 0,-10.256716 8.31472,-18.571428 18.57143,-18.571428 10.25672,0 18.57143,8.314712 18.57143,18.571428 z"
           transform="translate(19.285714,13.571429)" />
        <path
           transform="matrix(1.1011179,0,0,0.60980707,-52.332528,39.231264)"
           d="m 235.35714,27.183611 c 0,1.084845 -0.79949,1.964286 -1.78571,1.964286 -0.98623,0 -1.78572,-0.879441 -1.78572,-1.964286 0,-1.084845 0.79949,-1.964286 1.78572,-1.964286 0.98622,0 1.78571,0.879441 1.78571,1.964286 z"
           sodipodi:ry="1.9642857"
           sodipodi:rx="1.7857143"
           sodipodi:cy="27.183611"
           sodipodi:cx="233.57143"
           id="path3022"
           style="fill:#f9f9f9;fill-opacity:1;stroke:#4d4d4d;stroke-width:2;stroke-linecap:butt;stroke-miterlimit:4;stroke-opacity:1;stroke-dasharray:none"
           sodipodi:type="arc" />
        <path
           sodipodi:type="arc"
           style="fill:#f9f9f9;fill-opacity:1;stroke:#4d4d4d;stroke-width:2;stroke-linecap:butt;stroke-miterlimit:4;stroke-opacity:1;stroke-dasharray:none"
           id="path3024"
           sodipodi:cx="233.57143"
           sodipodi:cy="27.183611"
           sodipodi:rx="1.7857143"
           sodipodi:ry="1.9642857"
           d="m 235.35714,27.183611 c 0,1.084845 -0.79949,1.964286 -1.78571,1.964286 -0.98623,0 -1.78572,-0.879441 -1.78572,-1.964286 0,-1.084845 0.79949,-1.964286 1.78572,-1.964286 0.98622,0 1.78571,0.879441 1.78571,1.964286 z"
           transform="matrix(1.1011179,0,0,0.60980707,-38.332528,39.231264)" />
        <path
           style="fill:none;stroke:#4d4d4d;stroke-width:1px;stroke-linecap:butt;stroke-linejoin:miter;stroke-opacity:1"
           d="m 203.49061,65.207917 c 1.63566,1.71936 3.71626,3.004427 8.33617,2.407999 2.30896,-0.50383 8.46947,-0.985652 9.74198,-2.996015"
           id="path3026"
           inkscape:connector-curvature="0"
           sodipodi:nodetypes="ccc" />
        <path
           style="fill:#f9f9f9;fill-opacity:1;stroke:#4d4d4d;stroke-width:1px;stroke-linecap:butt;stroke-linejoin:miter;stroke-opacity:1"
           d="m 200.86063,43.659236 c 7.46947,-0.423563 15.21071,2.002199 20.82282,7.01276 3.60302,3.189155 5.89098,8.099644 5.07195,12.952896 -0.28885,1.966316 -0.98194,3.856629 -1.91009,5.608309 1.01224,1.386439 2.46023,3.28216 4.41663,2.78993 2.00632,-0.899575 2.61693,-3.286874 3.1459,-5.230296 0.95977,-4.548409 1.02043,-9.420432 -0.48302,-13.858732 -0.46709,-1.526777 -1.66965,-2.615676 -2.30704,-4.050233 -3.86159,-6.477169 -10.9246,-11.172101 -18.51775,-11.630739 -3.48987,-0.188431 -7.05641,0.771126 -9.89144,2.837974 -0.91284,1.232186 -0.3048,3.044786 0.91476,3.820667"
           id="path3068"
           inkscape:connector-curvature="0" />
      </g>
    </g>
  </g>
</svg>
