<?xml version="1.0" encoding="UTF-8" standalone="no"?>
<!-- Generator: Adobe Illustrator 24.0.1, SVG Export Plug-In . SVG Version: 6.00 Build 0)  -->

<svg
   xmlns:dc="http://purl.org/dc/elements/1.1/"
   xmlns:cc="http://creativecommons.org/ns#"
   xmlns:rdf="http://www.w3.org/1999/02/22-rdf-syntax-ns#"
   xmlns:svg="http://www.w3.org/2000/svg"
   xmlns="http://www.w3.org/2000/svg"
   xmlns:sodipodi="http://sodipodi.sourceforge.net/DTD/sodipodi-0.dtd"
   xmlns:inkscape="http://www.inkscape.org/namespaces/inkscape"
   version="1.1"
   id="Layer_1"
   x="0px"
   y="0px"
   viewBox="0 0 1055.858 347.74676"
   xml:space="preserve"
   inkscape:version="0.91 r13725"
   sodipodi:docname="logo.wro.front.svg"
   width="1055.858"
   height="347.74677"><metadata
     id="metadata87"><rdf:RDF><cc:Work
         rdf:about=""><dc:format>image/svg+xml</dc:format><dc:type
           rdf:resource="http://purl.org/dc/dcmitype/StillImage" /><dc:title></dc:title></cc:Work></rdf:RDF></metadata><defs
     id="defs85" /><sodipodi:namedview
     pagecolor="#ffffff"
     bordercolor="#666666"
     borderopacity="1"
     objecttolerance="10"
     gridtolerance="10"
     guidetolerance="10"
     inkscape:pageopacity="0"
     inkscape:pageshadow="2"
     inkscape:window-width="1535"
     inkscape:window-height="759"
     id="namedview83"
     showgrid="false"
     inkscape:zoom="0.65526432"
     inkscape:cx="625.3442"
     inkscape:cy="239.87429"
     inkscape:window-x="0"
     inkscape:window-y="0"
     inkscape:window-maximized="0"
     inkscape:current-layer="g5"
     fit-margin-top="0"
     fit-margin-left="0"
     fit-margin-right="0"
     fit-margin-bottom="0"
     showguides="true"
     inkscape:guide-bbox="true"><sodipodi:guide
       position="-7.6305083,41.204746"
       orientation="0,1"
       id="guide4259" /></sodipodi:namedview><style
     type="text/css"
     id="style3">
	.st0{fill:#FFDD00;}
	.st1{fill:#FFFFFF;}
	.st2{fill:#0079C0;}
	.st3{fill:#F04923;}
	.st4{fill:#0F1226;}
	.st5{fill:#7A7C84;}
</style><g
     id="g5"
     transform="translate(-0.32186127,-11.163441)"><path
       class="st0"
       d="m 494.67604,176.17603 c 0.11192,1.5544 0.54715,3.08393 0.39793,4.67564 -0.1741,1.8031 0.0373,3.61864 -0.87047,5.372 -0.33575,0.63419 -0.84559,1.40518 -0.79585,2.20103 0.0373,0.7088 0.16166,1.35543 -0.2114,2.00207 -0.69637,1.20621 -0.93264,2.62382 -1.67875,3.80516 -0.0622,0.0995 -0.16166,0.24871 -0.13679,0.34819 0.26114,1.05699 -0.4974,1.72849 -0.96994,2.48704 -0.31088,0.48497 -0.69637,0.94507 -0.92021,1.47979 -0.4601,1.14403 -1.52952,1.89015 -1.95232,3.05905 -0.64663,1.80311 -2.12642,3.05906 -3.20828,4.57615 -0.92021,1.28083 -1.89015,2.49948 -2.99688,3.64352 -1.41761,1.46735 -2.67357,3.08392 -4.27771,4.41449 -0.75855,0.63419 -1.49222,1.36787 -2.20103,2.10155 -1.1316,1.15647 -2.49947,2.0145 -3.65595,3.13367 -0.26113,0.26114 -0.57201,0.47253 -0.85802,0.69637 -0.36062,0.27357 -0.65907,0.50984 -1.20622,0.55958 -0.69637,0.0746 -0.99481,0.95751 -1.56683,1.36787 -0.13679,0.0995 -0.14922,0.41036 -0.38549,0.34819 -0.94508,-0.27358 -1.52953,0.54715 -2.28808,0.79585 -1.35543,0.44767 -2.57408,1.25595 -3.76786,2.06424 -0.24871,0.16166 -0.41036,0.24871 -0.74611,0.23627 -0.50985,-0.0249 -1.04456,0.2114 -1.35544,0.68394 -0.2114,0.32331 -0.48497,0.48497 -0.85803,0.48497 -0.74611,0 -1.31813,0.39793 -1.92745,0.72124 -0.64663,0.34819 -1.41761,0.33575 -2.10155,0.64663 -1.47979,0.69637 -3.03419,1.0943 -4.67563,1.15647 -0.22384,0.0124 -0.43523,0.23627 -0.6715,0.31088 -0.58446,0.19897 -1.13161,0.13679 -1.7658,0.0124 -0.41036,-0.0871 -0.80829,0.84559 -1.46735,0.80829 -2.05181,-0.0995 -4.07875,0.27357 -6.15542,-0.0124 -1.03213,-0.13679 -2.15129,0.18653 -3.24559,0 -0.23627,-0.0373 -0.48497,0.0124 -0.73368,-0.0995 -1.51709,-0.72124 -3.27045,-0.54715 -4.77511,-1.28083 -1.04456,-0.50984 -2.25077,-0.63419 -3.20828,-1.35543 -0.17409,-0.12435 -0.36062,-0.0995 -0.52228,-0.14922 -2.10155,-0.70881 -4.12848,-1.60414 -5.98133,-2.84766 -0.9202,-0.62176 -1.95232,-1.04456 -2.8974,-1.65388 -1.62901,-1.03213 -3.13367,-2.21347 -4.58858,-3.46942 -1.13161,-0.98238 -2.23834,-1.98963 -3.27046,-3.05906 -2.13885,-2.18859 -4.12848,-4.51398 -5.65801,-7.16267 -1.06943,-1.85285 -2.15129,-3.69325 -2.88497,-5.72019 -0.48497,-1.35544 -0.79585,-2.74818 -1.23108,-4.11605 -0.53471,-1.69119 -0.8829,-3.46942 -1.11917,-5.22278 -0.26114,-1.96476 -0.26114,-3.96683 -0.31088,-5.96889 -0.0249,-1.19378 -0.16166,-2.4 -0.12435,-3.60621 0.0622,-2.53678 0.32332,-5.06112 0.60932,-7.57303 0.16166,-1.38031 0.57202,-2.72331 0.53472,-4.12849 -0.0124,-0.47253 0.42279,-0.69637 0.54715,-1.10673 0.43523,-1.33056 0.4601,-2.78548 1.28082,-3.9917 0.0497,-0.0746 0.0373,-0.21139 0.0995,-0.26114 1.36787,-0.96994 0.38549,-1.93989 -0.0249,-2.88496 -1.23108,-2.86009 -2.62382,-5.65801 -3.87978,-8.51811 -0.6715,-1.52953 -1.28082,-3.09636 -2.08911,-4.57615 -0.55958,-1.03212 -0.6715,-2.2259 -0.87046,-3.3575 -0.13679,-0.82072 0.8829,-1.84041 1.85284,-1.93989 0.96995,-0.11192 1.96476,-0.22383 2.93471,-0.16166 2.62382,0.16166 5.23521,0.16166 7.85904,0.18653 1.74093,0.0249 3.48185,0.12435 5.22278,0.087 0.37305,-0.0124 0.69637,0.0124 0.87046,-0.3855 0.0995,-0.23626 0.32332,-0.36062 0.53472,-0.31087 0.48497,0.11191 0.60932,-0.2114 0.74611,-0.53472 0.33575,-0.75854 0.82072,-1.41761 1.49222,-1.89015 1.01969,-0.7088 1.98963,-1.44248 2.686,-2.49947 0.64663,-0.96995 1.71606,-1.44248 2.67357,-1.95233 0.73368,-0.39792 1.38031,-0.8829 1.97719,-1.39274 0.8456,-0.7088 1.81554,-1.00725 2.81036,-1.31813 0.2114,-0.0622 0.44767,-0.0871 0.60932,-0.2114 0.8456,-0.62176 1.77824,-1.09429 2.77305,-1.31813 1.56684,-0.36062 2.98445,-1.25595 4.65076,-1.29326 0.12436,0 0.28601,0.0249 0.36062,-0.0497 1.66632,-1.35543 3.71813,-0.78342 5.58341,-1.11917 1.1316,-0.19896 2.23833,-0.54714 3.40724,-0.21139 0.14922,0.0373 0.38549,-0.1741 0.57202,-0.27358 0.50984,-0.26114 1.10673,-0.36062 1.50466,0 0.48497,0.44767 0.69637,0.32332 1.21864,0.0497 0.44767,-0.2487 1.19378,-0.0497 1.77824,0.0746 1.01968,0.19897 2.06424,0.27358 3.08393,0.43524 0.93264,0.16165 1.89014,0.29844 2.84765,0.42279 0.67151,0.087 1.24352,0.6342 1.98964,0.44767 0.0373,-0.0124 0.13678,0.0373 0.16165,0.0871 0.6342,1.1689 2.0145,0.6715 2.87253,1.25595 1.19378,0.82072 2.61139,1.01969 3.87978,1.61657 1.45492,0.68394 2.88497,1.43005 4.38963,2.01451 0.65906,0.26114 1.343,0.73367 1.86528,1.18134 1.67875,1.43005 3.63107,2.44973 5.38443,3.76786 2.08912,1.59171 4.36476,2.93471 6.16786,4.89947 1.00725,1.0943 1.90258,2.28807 2.93471,3.30776 1.45491,1.43005 2.2632,3.23315 3.30776,4.88703 1.20621,1.91502 2.37512,3.86735 3.30776,5.91915 0.49741,1.08187 0.8829,2.27564 1.16891,3.49429 0.27357,1.16891 0.60932,2.33782 0.93264,3.50673 0.63419,2.36268 0.87046,4.76268 1.20621,7.15023 z m -50.11383,-22.39578 c 0.0124,-2.78548 -1.64144,-4.67563 -4.4518,-5.17304 -1.40518,-0.2487 -2.81035,-0.38549 -4.21553,-0.22383 -0.98238,0.12435 -2.03937,0.0995 -2.82279,0.84559 -1.65388,1.56683 -3.12123,3.24559 -3.20828,5.70775 -0.0124,0.23627 -0.0497,0.60933 -0.19896,0.68394 -0.75855,0.39793 -0.18653,0.73368 -0.0124,1.11917 0.2114,0.44766 0.58446,0.83315 0.57202,1.35543 -0.0373,1.08186 0.8829,2.16373 1.96476,2.1886 0.33575,0.0124 0.60933,0.12435 0.68394,0.38549 0.16166,0.57202 0.64663,0.6715 1.08186,0.75854 2.12642,0.41037 4.16579,0.27358 6.15542,-0.77098 2.78548,-1.47979 4.2404,-3.74299 4.4518,-6.87666 z m 45.71177,43.07551 0.0373,-0.0497 -0.0622,0 0.0249,0.0497 z"
       id="path7"
       inkscape:connector-curvature="0"
       style="fill:#ffdd00" /><polygon
       class="st1"
       points="401.16,158.57 401.21,158.57 401.18,158.61 "
       id="polygon9"
       transform="matrix(1.2185068,0,0,2.092403,75.68814,-104.74823)"
       style="fill:#ffffff" /><g
       id="g11"
       transform="matrix(1.2435193,0,0,1.2435193,-8.6011027,-0.37884215)"><path
         class="st2"
         d="m 287.48,109.53 c 0,0.01 0.01,0.01 0.01,0.01 0,0 0,0 0,0 l -0.01,-0.01 z"
         id="path13"
         inkscape:connector-curvature="0"
         style="fill:#0079c0" /><path
         class="st2"
         d="m 324.02,104.14 c -0.41,-0.53 -0.61,-0.87 -1.28,-0.74 -0.1,0.02 -0.24,-0.08 -0.34,-0.15 -0.92,-0.72 -2.03,-1.09 -3.01,-1.7 -1.14,-0.71 -2.25,-1.49 -3.53,-1.95 -0.05,-0.03 -0.09,-0.03 -0.14,-0.02 l 0,0 c -0.04,-0.14 -0.16,-0.18 -0.27,-0.24 -1.59,-0.81 -3.18,-1.62 -4.77,-2.43 -0.21,-0.11 -0.41,-0.2 -0.64,-0.12 0,0 -0.03,-0.03 -0.03,-0.03 -0.25,-0.46 -0.72,-0.54 -1.16,-0.65 -0.07,-0.07 -0.13,-0.17 -0.22,-0.2 -1.48,-0.61 -2.91,-1.33 -4.38,-1.96 -1.49,-0.64 -2.3,-2.11 -3.35,-3.25 -0.69,-0.75 -1.26,-1.64 -2.06,-2.27 -1.67,-1.32 -3.2,-2.81 -5.03,-3.94 -1.42,-0.88 -2.82,-1.8 -4.28,-2.58 -1.68,-0.89 -3.46,-1.59 -5.29,-2.19 -1.78,-0.59 -3.56,-1.13 -5.41,-1.46 -3.06,-0.54 -6.13,-0.74 -9.24,-0.72 -1.72,0.01 -3.44,0.16 -5.11,0.39 -2.12,0.3 -4.2,0.96 -6.22,1.73 -1.45,0.55 -2.95,1.04 -4.31,1.77 -1.57,0.84 -3.03,1.89 -4.5,2.91 -1.03,0.72 -2.04,1.52 -2.92,2.39 -0.92,0.92 -1.88,1.87 -2.59,2.97 -0.26,0.4 -0.79,0.58 -0.84,1.11 0,0 0,0 0,0 -0.12,-0.12 -0.24,-0.08 -0.3,0.04 -0.21,0.42 -0.29,0.91 -0.76,1.17 -0.11,0.06 -0.08,0.12 0.11,0.17 -0.21,0.03 -0.5,-0.04 -0.65,0.51 -0.08,0.28 0.01,0.73 -0.34,0.92 -0.93,0.53 -1.18,1.6 -1.88,2.34 -0.55,0.57 -1.22,1.36 -1.18,2.36 0.01,0.18 -0.12,0.25 -0.26,0.33 -0.4,0.26 -0.46,0.67 -0.36,1.07 0.07,0.28 -0.05,0.45 -0.13,0.69 -0.19,0.54 -0.81,0.88 -0.87,1.36 -0.16,1.4 -0.66,2.7 -1.02,4.03 -0.16,0.6 -0.61,1.07 -0.66,1.73 -0.03,0.48 -0.06,1.02 -0.47,1.41 -0.08,0.08 -0.06,0.29 -0.06,0.43 0.02,1.47 -0.33,2.9 -0.67,4.3 -0.15,0.61 -0.41,1.19 -0.41,1.85 0.02,2.21 -0.44,4.4 -0.38,6.61 0.01,0.36 -0.36,0.81 -0.23,1.07 0.48,1.03 0.18,2.11 0.34,3.14 0.06,0.37 -0.64,0.85 0.13,1.11 -0.02,0 -0.06,-0.02 -0.07,-0.01 -0.29,0.37 0.3,0.66 0.1,1.05 -0.07,0.13 0,0.34 0.04,0.51 0.18,0.72 0.4,1.42 0.57,2.15 0.3,1.29 0.46,2.63 0.9,3.87 0.29,0.83 0.4,1.71 0.78,2.54 0.37,0.81 0.67,1.74 0.89,2.67 0.22,0.92 1.05,1.67 1.46,2.59 0.28,0.63 0.64,1.24 1,1.83 0.24,0.4 0.25,0.91 0.61,1.25 0.02,0.02 0.09,-0.01 0.14,-0.02 0,0 0,-0.02 0,-0.03 0.02,0.04 0.04,0.09 0.06,0.13 0.37,1.07 1.08,1.97 1.73,2.84 0.72,0.96 1.5,1.9 2.21,2.87 0.28,0.38 0.73,0.62 0.88,1.11 0,0 0,0 0,0 -0.05,0.09 -0.04,0.19 0.05,0.24 0.02,0.01 0.09,-0.06 0.14,-0.1 0.51,0.76 1.14,1.41 1.76,2.07 0.03,0.16 0.08,0.31 0.27,0.33 0.93,1.36 2.15,2.41 3.53,3.28 0,0 0.04,0.02 0.04,0.02 l 0.05,-0.01 c 1.08,0.8 2.12,1.65 3.25,2.38 2.09,1.34 4.37,2.35 6.61,3.41 1.17,0.55 2.32,1.2 3.64,1.37 0.23,0.14 0.46,0.28 0.74,0.36 0.92,0.27 1.87,0.41 2.79,0.67 1.5,0.41 3.01,0.69 4.55,0.77 1.82,0.09 3.64,0.25 5.47,0.05 1.48,-0.16 2.97,-0.16 4.44,-0.33 1.59,-0.18 3.17,-0.47 4.72,-0.91 1.26,-0.36 2.52,-0.71 3.8,-0.99 2.1,-0.46 4.09,-1.23 6.05,-2.1 1.16,-0.51 2.31,-1.03 3.43,-1.62 0.74,-0.39 1.53,-0.73 2.2,-1.21 0.85,-0.61 1.49,-1.49 2.24,-2.23 1.02,-0.99 2.15,-1.84 3.04,-3 1.27,-1.65 2.56,-3.28 3.55,-5.11 0.99,-1.83 1.75,-3.78 2.2,-5.82 0.59,-2.67 1.07,-5.35 1.14,-8.1 0.04,-1.57 0.14,-3.13 -0.08,-4.69 -0.09,-1.42 -0.31,-2.84 -0.65,-4.21 -0.34,-1.37 -0.63,-2.77 -1.17,-4.09 -0.55,-1.33 -0.85,-2.76 -1.52,-4.05 0,-0.11 -0.01,-0.21 -0.01,-0.32 1.59,-1.47 3.24,-2.89 4.76,-4.44 0.55,-0.56 1.33,-0.9 1.68,-1.65 0.05,-0.05 0.1,-0.09 0.16,-0.14 1.12,-0.59 1.88,-1.56 2.71,-2.46 0.06,-0.04 0.13,-0.08 0.19,-0.12 l 0,0 c 0.76,-0.39 1.31,-1.04 1.92,-1.59 0.78,-0.71 1.62,-1.44 1.96,-2.48 0.18,-0.57 0.6,-1.08 0.02,-1.84 z m -32.27,1.23 c -0.1,0.79 -0.57,1.43 -0.88,2.12 -0.14,0.31 -0.65,0.64 -0.97,0.75 -0.63,0.21 -0.92,0.95 -1.67,0.92 -0.15,-0.01 -0.39,0.18 -0.49,0.42 -0.07,0.17 -0.18,0.1 -0.24,-0.03 -1.43,0.26 -2.83,0.03 -4.21,-0.34 l 0,0 c -0.38,-0.55 -1.11,-0.6 -1.55,-1.07 l 0,0 c 0,0 0,0 0,0 -0.28,-0.41 -0.49,-0.86 -0.88,-1.2 -0.99,-0.88 -1.08,-2.19 -1.37,-3.34 -0.18,-0.69 0.05,-1.54 -0.02,-2.32 -0.02,-0.18 0.18,-0.36 0.21,-0.55 0.08,-0.59 0.73,-0.55 1,-0.95 0.79,-1.17 2,-1.38 3.27,-1.35 1.09,0.03 2.18,0.18 3.26,0.39 1.52,0.53 2.78,1.48 3.99,2.5 0.48,0.4 0.61,0.96 0.68,1.66 0.05,0.83 -0.03,1.6 -0.13,2.39 z m 21.2,-5.89 0,0 c 0,-0.08 0,-0.17 0,-0.26 0,0.09 0.01,0.18 0,0.26 z m 10.68,5.8 c 0,0 0,0 0,0 -0.02,0.17 -0.05,0.33 -0.08,0.49 0.03,-0.16 0.05,-0.33 0.08,-0.49 z"
         id="path15"
         inkscape:connector-curvature="0"
         style="fill:#0079c0" /><path
         class="st2"
         d="m 317.82,92.76 c -0.02,0.03 -0.04,0.06 -0.06,0.09 0.03,-0.02 0.06,-0.04 0.09,-0.05 0,-0.01 -0.03,-0.04 -0.03,-0.04 z"
         id="path17"
         inkscape:connector-curvature="0"
         style="fill:#0079c0" /><path
         class="st2"
         d="m 287.48,109.53 c 0,0 0.01,0.01 0.01,0.01 0,-0.01 0.01,-0.01 0.01,-0.02 -0.01,0.01 -0.02,0.01 -0.02,0.01 z"
         id="path19"
         inkscape:connector-curvature="0"
         style="fill:#0079c0" /><path
         class="st2"
         d="m 287.55,109.45 c -0.02,0.03 -0.04,0.06 -0.05,0.09 0.03,0 0.06,0 0.1,-0.01 -0.02,-0.03 -0.03,-0.06 -0.05,-0.08 z"
         id="path21"
         inkscape:connector-curvature="0"
         style="fill:#0079c0" /></g><g
       id="g23"
       transform="matrix(1.2435193,0,0,1.2435193,-8.6011027,-0.37884215)"><path
         class="st3"
         d="m 373.06,67.51 c 0.16,-0.62 0.26,-1.35 -0.01,-1.86 -0.34,-0.64 -0.28,-1.2 -0.15,-1.81 0.03,-0.17 0.04,-0.3 -0.04,-0.43 -0.5,-0.79 -0.44,-1.75 -0.82,-2.58 -0.09,-0.21 0.05,-0.46 -0.13,-0.66 -0.59,-0.64 -0.77,-1.44 -0.96,-2.25 -0.12,-0.49 -0.22,-1.01 -0.7,-1.34 -0.21,-0.14 -0.31,-0.37 -0.16,-0.6 0.18,-0.27 -0.03,-0.37 -0.12,-0.57 -0.21,-0.47 -0.9,-0.59 -0.91,-1.15 -0.02,-1.11 -0.68,-1.77 -1.49,-2.36 -0.15,-0.11 -0.26,-0.22 -0.23,-0.44 0.11,-0.83 -1.14,-1.17 -0.78,-2.11 -0.07,-0.03 -0.14,-0.05 -0.21,-0.08 -0.33,-0.13 -0.57,-0.27 -0.65,-0.71 -0.06,-0.3 -0.31,-0.83 -0.46,-0.9 -0.67,-0.3 -0.96,-0.93 -1.43,-1.39 -0.61,-0.6 -1.5,-0.95 -1.81,-1.83 -0.21,-0.61 -0.66,-0.95 -1.11,-1.34 -0.97,-0.83 -1.8,-1.83 -2.8,-2.6 -0.78,-0.61 -1.77,-1 -2.47,-1.73 -0.6,-0.62 -1.43,-0.56 -2.09,-0.96 -0.07,-0.15 -0.2,-0.13 -0.33,-0.11 -1.1,-0.54 -2.32,-0.82 -3.37,-1.4 -0.95,-0.53 -2.03,-0.62 -2.97,-1.22 -0.67,-0.43 -1.63,-0.44 -2.47,-0.57 -0.4,-0.06 -0.73,-0.1 -1.09,-0.38 -0.26,-0.2 -0.71,-0.3 -1.15,-0.16 -0.97,0.3 -1.83,-0.03 -2.71,-0.46 -0.5,-0.24 -1.12,-0.12 -1.68,-0.04 -0.56,0.08 -1.1,-0.08 -1.61,-0.11 -0.76,-0.05 -1.63,-0.44 -2.37,-0.01 -0.52,0.3 -0.97,0.38 -1.57,0.29 -0.56,-0.09 -1.08,-0.52 -1.72,-0.25 -0.15,0.07 -0.39,-0.19 -0.47,-0.43 -0.11,-0.02 -0.21,-0.05 -0.32,-0.07 0.01,0.05 0.03,0.1 0.04,0.14 0.06,0.24 -0.2,0.28 -0.23,0.2 -0.27,-0.68 -1.11,0.94 -1.2,-0.31 -0.08,0.02 -0.17,0.03 -0.25,0.05 -0.09,0.14 0.04,0.53 -0.17,0.43 -0.65,-0.32 -1.39,0.07 -2.01,-0.31 -0.05,0.01 -0.1,0.01 -0.15,0.02 -0.02,0.06 -0.04,0.18 -0.05,0.18 -0.13,-0.01 -0.07,-0.12 -0.08,-0.19 -0.05,-0.01 -0.11,-0.01 -0.16,-0.02 -0.22,0.45 -0.5,0.12 -0.76,0.06 -2.26,0.22 -4.5,0.55 -6.73,0.98 -1.06,0.21 -2.19,0.35 -3.16,0.93 0.06,0.03 0.11,0.06 0.17,0.09 -0.03,0.02 -0.06,0.04 -0.09,0.07 -0.03,-0.05 -0.06,-0.11 -0.09,-0.16 -0.16,0.01 -0.32,0.03 -0.48,0.04 0.36,0.35 -0.03,0.53 -0.21,0.51 -0.74,-0.08 -1.3,0.39 -1.9,0.64 -0.37,0.15 -0.63,0.18 -0.96,0.06 0,0 0,0 0,0 0.01,0.11 0.01,0.22 0.02,0.33 -0.67,0.55 -1.37,1.05 -2.29,1.06 -0.04,0.02 -0.09,0.04 -0.13,0.06 -0.3,0.09 -0.62,0.1 -0.88,0.34 -1.03,0.97 -2.29,1.65 -3.35,2.61 -1.21,1.1 -2.57,2.03 -3.64,3.28 -0.36,0.42 -0.85,0.69 -1.15,1.16 -0.58,0.87 -1.15,1.75 -1.79,2.59 -0.66,0.86 -1.28,1.77 -1.73,2.75 -0.36,0.8 -0.91,1.47 -1.23,2.29 -0.54,1.39 -1.59,2.51 -1.67,4.17 -0.05,1.1 -0.45,2.26 -0.68,3.39 -0.19,0.92 -0.35,1.87 -0.23,2.82 0,0.05 0,0.11 0,0.16 -0.03,0.03 -0.04,0.07 -0.01,0.12 0,0.06 -0.01,0.11 -0.01,0.17 0.02,0.41 -0.17,0.82 0.03,1.23 -0.01,0.1 -0.02,0.2 -0.04,0.3 0.2,0.1 0.31,0.22 0.37,0.34 -0.06,-0.12 -0.17,-0.24 -0.37,-0.34 -0.01,0.52 -0.01,1.04 0.2,1.54 0.03,0.1 0.05,0.2 0.08,0.3 -0.19,0.45 0.14,0.83 0.17,1.24 0.05,0.19 0.1,0.38 0.15,0.57 0.02,0.21 -0.1,0.44 0.11,0.62 -0.06,0.44 0.2,0.82 0.25,1.24 0.23,1.82 0.92,3.52 1.53,5.22 0.53,1.49 1.36,2.88 2.35,4.16 0.96,1.23 1.86,2.53 3.06,3.53 1.97,1.64 3.94,3.26 6.07,4.71 1.86,1.27 3.83,2.25 5.88,3.12 0.05,0.26 0.29,0.27 0.46,0.34 1.71,0.78 3.47,1.46 5.28,1.98 1.12,0.33 2.3,0.46 3.45,0.67 1.09,0.27 2.15,0.62 3.29,0.67 0.41,0.02 0.93,0 1.05,0.62 0.27,1.48 0.82,2.87 1.29,4.29 0.33,0.98 0.56,2.01 0.85,3.01 0.31,1.06 0.4,2.21 0.99,3.19 -0.05,0.57 0.15,1.06 0.46,1.52 0.02,0.05 0.03,0.11 0.05,0.16 0.14,0.6 0.23,1.22 0.43,1.8 0.36,1.05 0.93,1.35 1.99,1.05 1.64,-0.47 2.59,-1.8 3.63,-3.02 0.93,-0.68 1.59,-1.62 2.34,-2.46 1.88,-2.12 3.63,-4.36 5.45,-6.55 0.42,-0.5 0.89,-0.93 1.66,-0.77 0.57,0.12 1.15,-0.06 1.72,-0.12 1.81,-0.2 3.55,-0.73 5.26,-1.31 1.5,-0.5 2.93,-1.27 4.33,-2.02 1.55,-0.83 3.12,-1.64 4.41,-2.88 0.29,-0.28 0.55,-0.61 0.92,-0.79 0.1,-0.03 0.22,-0.03 0.29,-0.09 1.14,-1.04 2.32,-2.04 3.4,-3.14 0.49,-0.5 0.99,-1.06 1.23,-1.77 0,0 0.01,-0.01 0.01,-0.01 0.22,-0.13 0.37,-0.31 0.43,-0.56 0.82,-0.71 1.27,-1.69 1.82,-2.6 0.44,-0.73 0.98,-1.41 1.19,-2.27 0.22,-0.04 0.31,-0.2 0.42,-0.38 0.45,-0.72 0.62,-1.53 0.8,-2.34 l 0.01,-0.01 c 0.15,-0.02 0.35,-0.03 0.36,-0.21 0.08,-0.95 0.6,-1.78 0.76,-2.71 0.2,-1.18 0.65,-2.34 0.7,-3.52 0.05,-1.05 0.14,-2.1 0.16,-3.15 -0.31,-0.07 -0.18,-0.27 -0.13,-0.49 z m -79.78,-7.83 0,0 c -0.06,-0.03 -0.09,-0.05 -0.09,-0.08 0,0.03 0.03,0.06 0.09,0.08 z m 12.19,-18.89 c -0.02,-0.03 -0.04,-0.05 -0.06,-0.08 0.03,0.02 0.05,0.04 0.08,0.06 l -0.02,0.02 z m 0.31,-0.23 c 0.01,-0.01 0.02,-0.01 0.03,-0.02 -0.01,0 -0.02,0.01 -0.03,0.02 z m 1.11,-0.16 c -0.03,0.01 -0.08,-0.03 -0.12,-0.04 0.02,-0.04 0.03,-0.1 0.05,-0.11 0.03,-0.01 0.08,0.03 0.12,0.05 -0.02,0.02 -0.02,0.09 -0.05,0.1 z m 0.07,-0.66 c 0.01,-0.01 0.03,-0.01 0.04,-0.02 -0.02,0.02 -0.03,0.04 -0.05,0.06 0,-0.02 0,-0.04 0.01,-0.04 z m 4.34,-3.03 c -0.01,-0.01 -0.01,-0.02 -0.02,-0.04 0.02,0.02 0.04,0.03 0.05,0.05 0,0 -0.02,0 -0.03,-0.01 z m 5.63,55.73 c 0.2,-0.08 0.41,-0.06 0.61,0.06 -0.2,-0.12 -0.41,-0.14 -0.61,-0.06 z m 0.83,0.41 c 0.02,-0.03 0.04,-0.06 0.06,-0.09 l 0.03,0.03 c -0.03,0.02 -0.06,0.04 -0.09,0.06 z m 33.39,-13.94 c -0.56,0.78 -0.89,1.81 -2.03,2.12 -0.33,0.09 -0.62,0.51 -0.97,0.75 -1.05,0.71 -1.78,0.03 -2.55,-0.37 -0.42,-0.22 -0.84,-0.45 -1.28,-0.6 -0.55,-0.18 -0.84,-0.57 -0.84,-1.12 0,-0.44 -0.07,-0.86 -0.27,-1.23 -0.53,-0.98 -0.18,-1.8 0.43,-2.55 0.79,-0.98 1.8,-1.54 3.29,-1.49 0.62,0.39 1.54,0.17 2.43,0.46 0.97,0.32 1.35,0.75 1.41,1.66 0.01,0.09 0.06,0.18 0.13,0.25 0.74,0.77 0.89,1.23 0.25,2.12 z"
         id="path25"
         inkscape:connector-curvature="0"
         style="fill:#f04923" /><path
         class="st3"
         d="m 373.18,68.07 c 0,0 0,0 0,0 l 0,0 c 0,0 0,0 0,0 z"
         id="path27"
         inkscape:connector-curvature="0"
         style="fill:#f04923" /><polygon
         class="st3"
         points="373.18,68.07 373.18,68.07 373.22,68.05 "
         id="polygon29"
         style="fill:#f04923" /><path
         class="st3"
         d="m 351.22,78.51 c -0.01,-0.02 -0.03,-0.03 -0.04,-0.05 -0.02,0.01 -0.03,0.03 -0.05,0.04 0.02,0.02 0.04,0.03 0.06,0.05 0.01,-0.01 0.02,-0.03 0.03,-0.04 z"
         id="path31"
         inkscape:connector-curvature="0"
         style="fill:#f04923" /></g><g
       id="g33"
       transform="matrix(1.2435193,0,0,1.2435193,-8.6011027,-0.37884215)"><path
         class="st4"
         d="m 45.46,153.58 0,20.51 -7.62,0 0,-50.51 8.64,0 c 4.23,0 7.43,0.29 9.59,0.88 2.18,0.59 4.1,1.7 5.76,3.34 2.9,2.83 4.35,6.41 4.35,10.73 0,4.62 -1.55,8.29 -4.65,10.99 -3.1,2.7 -7.27,4.06 -12.53,4.06 l -3.54,0 z m 0,-7.07 2.85,0 c 7,0 10.5,-2.69 10.5,-8.08 0,-5.21 -3.61,-7.82 -10.83,-7.82 l -2.52,0 0,15.9 z"
         id="path35"
         inkscape:connector-curvature="0"
         style="fill:#0f1226" /><path
         class="st4"
         d="m 94.31,142.22 7.39,0 0,31.86 -7.39,0 0,-3.34 c -3.03,2.84 -6.29,4.25 -9.78,4.25 -4.41,0 -8.05,-1.59 -10.93,-4.78 -2.86,-3.25 -4.29,-7.31 -4.29,-12.17 0,-4.78 1.43,-8.76 4.29,-11.94 2.86,-3.18 6.43,-4.78 10.73,-4.78 3.71,0 7.03,1.53 9.98,4.58 l 0,-3.68 z m -17.47,15.84 c 0,3.05 0.82,5.54 2.45,7.46 1.68,1.94 3.79,2.91 6.35,2.91 2.73,0 4.93,-0.94 6.61,-2.81 1.68,-1.94 2.52,-4.41 2.52,-7.39 0,-2.99 -0.84,-5.45 -2.52,-7.39 -1.68,-1.9 -3.86,-2.85 -6.54,-2.85 -2.53,0 -4.65,0.96 -6.35,2.88 -1.68,1.93 -2.52,4.33 -2.52,7.19 z"
         id="path37"
         inkscape:connector-curvature="0"
         style="fill:#0f1226" /><path
         class="st4"
         d="m 110.99,142.22 7.39,0 0,2.94 c 2.57,-2.55 5.47,-3.83 8.7,-3.83 3.71,0 6.6,1.17 8.67,3.5 1.79,1.99 2.68,5.22 2.68,9.72 l 0,19.53 -7.39,0 0,-17.8 c 0,-3.14 -0.44,-5.31 -1.31,-6.51 -0.85,-1.22 -2.4,-1.83 -4.65,-1.83 -2.44,0 -4.18,0.81 -5.2,2.42 -1,1.59 -1.5,4.37 -1.5,8.34 l 0,15.38 -7.39,0 0,-31.86 z"
         id="path39"
         inkscape:connector-curvature="0"
         style="fill:#0f1226" /><path
         class="st4"
         d="m 176.75,159.89 -22.83,0 c 0.2,2.62 1.05,4.7 2.55,6.25 1.5,1.53 3.44,2.29 5.79,2.29 1.83,0 3.35,-0.44 4.55,-1.31 1.18,-0.87 2.52,-2.49 4.02,-4.84 l 6.22,3.47 c -0.96,1.63 -1.97,3.04 -3.04,4.2 -1.07,1.17 -2.21,2.13 -3.44,2.88 -1.22,0.75 -2.54,1.3 -3.96,1.65 -1.42,0.35 -2.96,0.52 -4.61,0.52 -4.75,0 -8.57,-1.53 -11.45,-4.58 -2.88,-3.08 -4.32,-7.15 -4.32,-12.24 0,-5.04 1.4,-9.12 4.19,-12.24 2.81,-3.08 6.54,-4.61 11.19,-4.61 4.69,0 8.4,1.5 11.12,4.48 2.7,2.97 4.06,7.08 4.06,12.33 l -0.04,1.75 z m -7.56,-6.02 c -1.03,-3.93 -3.5,-5.89 -7.43,-5.89 -0.89,0 -1.73,0.14 -2.52,0.41 -0.79,0.27 -1.5,0.67 -2.14,1.18 -0.64,0.51 -1.19,1.13 -1.65,1.85 -0.46,0.72 -0.81,1.54 -1.05,2.45 l 14.79,0 z"
         id="path41"
         inkscape:connector-curvature="0"
         style="fill:#0f1226" /><path
         class="st4"
         d="m 192.16,118.83 0,55.26 -7.36,0 0,-55.26 7.36,0 z"
         id="path43"
         inkscape:connector-curvature="0"
         style="fill:#0f1226" /><path
         class="st4"
         d="m 35.32,229 c 0,-7.11 2.61,-13.22 7.82,-18.32 5.19,-5.1 11.43,-7.66 18.71,-7.66 7.2,0 13.37,2.57 18.52,7.72 5.17,5.15 7.75,11.33 7.75,18.55 0,7.26 -2.6,13.42 -7.79,18.48 -5.21,5.08 -11.5,7.62 -18.88,7.62 -6.52,0 -12.38,-2.26 -17.57,-6.77 -5.7,-4.98 -8.56,-11.52 -8.56,-19.62 z m 7.69,0.1 c 0,5.58 1.88,10.17 5.63,13.77 3.73,3.6 8.04,5.4 12.92,5.4 5.3,0 9.77,-1.83 13.41,-5.5 3.64,-3.71 5.46,-8.22 5.46,-13.54 0,-5.39 -1.8,-9.9 -5.4,-13.54 -3.58,-3.66 -8,-5.5 -13.28,-5.5 -5.26,0 -9.69,1.83 -13.31,5.5 -3.62,3.62 -5.43,8.09 -5.43,13.41 z"
         id="path45"
         inkscape:connector-curvature="0"
         style="fill:#0f1226" /><path
         class="st4"
         d="m 103.66,199.23 0,27.09 c 2.94,-3.05 6.28,-4.58 10.01,-4.58 4.3,0 7.87,1.6 10.73,4.81 2.86,3.18 4.29,7.15 4.29,11.91 0,4.91 -1.44,8.96 -4.32,12.17 -2.86,3.18 -6.47,4.78 -10.83,4.78 -3.69,0 -6.98,-1.42 -9.88,-4.25 l 0,3.34 -7.36,0 0,-55.26 7.36,0 z m 17.5,39.56 c 0,-3.05 -0.83,-5.54 -2.49,-7.46 -1.68,-1.96 -3.78,-2.94 -6.31,-2.94 -2.7,0 -4.91,0.95 -6.61,2.85 -1.68,1.88 -2.52,4.32 -2.52,7.33 0,3.1 0.83,5.57 2.49,7.43 1.66,1.9 3.84,2.85 6.54,2.85 2.55,0 4.67,-0.95 6.35,-2.85 1.7,-1.94 2.55,-4.34 2.55,-7.21 z"
         id="path47"
         inkscape:connector-curvature="0"
         style="fill:#0f1226" /><path
         class="st4"
         d="m 145.31,248.57 -14.33,-25.94 8.54,0 9.75,18.32 9.09,-18.32 8.31,0 -25.39,49.2 -8.41,0 12.44,-23.26 z"
         id="path49"
         inkscape:connector-curvature="0"
         style="fill:#0f1226" /><path
         class="st4"
         d="m 175.67,222.62 8.34,18.19 9,-21.1 9.06,21.1 8.24,-18.19 8.24,0 -16.68,34.25 -8.87,-20.51 -8.96,20.51 -16.65,-34.25 8.28,0 z"
         id="path51"
         inkscape:connector-curvature="0"
         style="fill:#0f1226" /><path
         class="st4"
         d="m 245.94,222.62 7.39,0 0,31.86 -7.39,0 0,-3.34 c -3.03,2.84 -6.29,4.25 -9.78,4.25 -4.41,0 -8.05,-1.59 -10.93,-4.78 -2.86,-3.25 -4.29,-7.31 -4.29,-12.17 0,-4.78 1.43,-8.76 4.29,-11.94 2.86,-3.18 6.43,-4.78 10.73,-4.78 3.71,0 7.03,1.53 9.98,4.58 l 0,-3.68 z m -17.47,15.84 c 0,3.05 0.82,5.54 2.45,7.46 1.68,1.94 3.79,2.91 6.35,2.91 2.73,0 4.93,-0.94 6.61,-2.81 1.68,-1.94 2.52,-4.41 2.52,-7.39 0,-2.99 -0.84,-5.45 -2.52,-7.39 -1.68,-1.9 -3.86,-2.85 -6.54,-2.85 -2.53,0 -4.65,0.96 -6.35,2.88 -1.68,1.93 -2.52,4.33 -2.52,7.19 z"
         id="path53"
         inkscape:connector-curvature="0"
         style="fill:#0f1226" /><path
         class="st4"
         d="m 270.21,229.49 0,24.99 -7.36,0 0,-24.99 -3.14,0 0,-6.87 3.14,0 0,-11.68 7.36,0 0,11.68 5.72,0 0,6.87 -5.72,0 z"
         id="path55"
         inkscape:connector-curvature="0"
         style="fill:#0f1226" /><path
         class="st4"
         d="m 310.55,240.29 -22.84,0 c 0.2,2.62 1.05,4.7 2.55,6.25 1.5,1.53 3.43,2.29 5.79,2.29 1.83,0 3.35,-0.44 4.55,-1.31 1.18,-0.87 2.52,-2.49 4.02,-4.84 l 6.21,3.47 c -0.96,1.63 -1.97,3.04 -3.04,4.2 -1.07,1.17 -2.21,2.13 -3.44,2.88 -1.22,0.75 -2.54,1.3 -3.96,1.65 -1.42,0.35 -2.96,0.52 -4.61,0.52 -4.75,0 -8.57,-1.53 -11.45,-4.58 -2.88,-3.08 -4.32,-7.15 -4.32,-12.24 0,-5.04 1.4,-9.12 4.19,-12.24 2.81,-3.08 6.54,-4.61 11.19,-4.61 4.69,0 8.4,1.5 11.12,4.48 2.71,2.97 4.06,7.08 4.06,12.33 l -0.02,1.75 z m -7.56,-6.02 c -1.03,-3.93 -3.5,-5.89 -7.43,-5.89 -0.89,0 -1.73,0.14 -2.52,0.41 -0.79,0.27 -1.5,0.67 -2.14,1.18 -0.64,0.51 -1.19,1.13 -1.65,1.85 -0.46,0.72 -0.81,1.54 -1.05,2.45 l 14.79,0 z"
         id="path57"
         inkscape:connector-curvature="0"
         style="fill:#0f1226" /><path
         class="st4"
         d="m 325.96,199.23 0,55.26 -7.36,0 0,-55.26 7.36,0 z"
         id="path59"
         inkscape:connector-curvature="0"
         style="fill:#0f1226" /><path
         class="st4"
         d="m 353.8,228.05 -6.08,3.24 c -0.96,-1.96 -2.15,-2.94 -3.57,-2.94 -0.68,0 -1.25,0.22 -1.73,0.67 -0.48,0.45 -0.72,1.02 -0.72,1.72 0,1.22 1.42,2.43 4.25,3.63 3.9,1.68 6.53,3.23 7.88,4.64 1.35,1.42 2.03,3.33 2.03,5.73 0,3.08 -1.13,5.65 -3.4,7.72 -2.2,1.96 -4.86,2.94 -7.98,2.94 -5.34,0 -9.13,-2.61 -11.35,-7.82 l 6.28,-2.91 c 0.87,1.53 1.54,2.5 2,2.91 0.89,0.83 1.96,1.24 3.21,1.24 2.49,0 3.73,-1.13 3.73,-3.4 0,-1.31 -0.96,-2.53 -2.88,-3.66 -0.74,-0.37 -1.48,-0.73 -2.22,-1.08 -0.74,-0.35 -1.5,-0.71 -2.26,-1.08 -2.14,-1.05 -3.64,-2.09 -4.51,-3.14 -1.11,-1.33 -1.67,-3.04 -1.67,-5.14 0,-2.77 0.95,-5.06 2.85,-6.87 1.94,-1.81 4.3,-2.72 7.07,-2.72 4.05,0.01 7.08,2.12 9.07,6.32 z"
         id="path61"
         inkscape:connector-curvature="0"
         style="fill:#0f1226" /><path
         class="st4"
         d="m 369.83,199.23 0,33.7 10.37,-10.31 9.88,0 -13.84,13.38 14.85,18.48 -9.55,0 -10.54,-13.45 -1.18,1.18 0,12.27 -7.36,0 0,-55.26 7.37,0 z"
         id="path63"
         inkscape:connector-curvature="0"
         style="fill:#0f1226" /><path
         class="st4"
         d="m 394.73,209.38 c 0,-1.29 0.47,-2.4 1.41,-3.34 0.94,-0.94 2.06,-1.41 3.37,-1.41 1.33,0 2.46,0.47 3.4,1.41 0.94,0.92 1.41,2.04 1.41,3.37 0,1.33 -0.47,2.46 -1.41,3.4 -0.92,0.94 -2.04,1.41 -3.37,1.41 -1.33,0 -2.46,-0.47 -3.4,-1.41 -0.95,-0.94 -1.41,-2.08 -1.41,-3.43 z m 8.47,13.24 0,31.86 -7.36,0 0,-31.86 7.36,0 z"
         id="path65"
         inkscape:connector-curvature="0"
         style="fill:#0f1226" /></g><text
       xml:space="preserve"
       style="font-style:normal;font-weight:normal;font-size:93.54036713px;line-height:125%;font-family:Sans;text-align:start;letter-spacing:4px;word-spacing:0px;text-anchor:start;fill:#b3b3b3;fill-opacity:1;stroke:none;stroke-width:1px;stroke-linecap:butt;stroke-linejoin:miter;stroke-opacity:1;"
       x="807.04205"
       y="121.54877"
       id="text4251"
       sodipodi:linespacing="125%"
       transform="scale(0.7526018,1.3287239)"><tspan
         sodipodi:role="line"
         id="tspan4253"
         x="807.04205"
         y="121.54877"
         style="font-style:normal;font-variant:normal;font-weight:normal;font-stretch:normal;font-family:sans-serif;-inkscape-font-specification:sans-serif;letter-spacing:4px;">WROCŁAW</tspan><tspan
         sodipodi:role="line"
         x="807.04205"
         y="238.47423"
         id="tspan4255"
         style="font-style:normal;font-variant:normal;font-weight:normal;font-stretch:normal;font-family:sans-serif;-inkscape-font-specification:sans-serif;letter-spacing:4px;">ROZMAWIA</tspan></text>
</g></svg>